STARTFONT 2.1
COMMENT  (c) Copyright Bigelow & Holmes 1986, 1985. Lucida is a registered
COMMENT  trademark of Bigelow & Holmes. See LEGAL NOTICE file for terms 
COMMENT  of the license. 
FONT -B&H-LucidaBright-Medium-R-Normal--14-140-75-75-P-80-ISO8859-1
SIZE 14 72 72
FONTBOUNDINGBOX 22 16 -8 -3
STARTPROPERTIES 19
COMMENT Begin LogicalFontDescription
FONTNAME_REGISTRY ""
FOUNDRY "B&H"
FAMILY_NAME "LucidaBright"
WEIGHT_NAME "Medium"
SLANT "R"
SETWIDTH_NAME "Normal"
ADD_STYLE_NAME ""
PIXEL_SIZE 14
POINT_SIZE 140
RESOLUTION_X 75
RESOLUTION_Y 75
SPACING "P"
AVERAGE_WIDTH 80
CHARSET_REGISTRY "ISO8859"
CHARSET_ENCODING "1"
COMMENT END LogicalFontDescription
FONT_ASCENT 13
FONT_DESCENT 3
DEFAULT_CHAR 32
COPYRIGHT "Copyright Bigelow & Holmes 1986, 1985."
ENDPROPERTIES
CHARS 228
STARTCHAR space
ENCODING 32
SWIDTH 42 0
DWIDTH 4 0
BBX 1 1 0 0
BITMAP
00
ENDCHAR
STARTCHAR exclam
ENCODING 33
SWIDTH 42 0
DWIDTH 4 0
BBX 1 10 1 0
BITMAP
80
80
80
80
80
80
80
00
00
80
ENDCHAR
STARTCHAR quotedbl
ENCODING 34
SWIDTH 42 0
DWIDTH 5 0
BBX 3 3 1 7
BITMAP
A0
A0
A0
ENDCHAR
STARTCHAR numbersign
ENCODING 35
SWIDTH 42 0
DWIDTH 9 0
BBX 9 10 0 0
BITMAP
0900
1A00
1200
7F80
1200
2400
FF00
2400
2C00
4800
ENDCHAR
STARTCHAR dollar
ENCODING 36
SWIDTH 42 0
DWIDTH 9 0
BBX 5 13 2 -2
BITMAP
20
78
A8
A8
A0
60
30
28
A8
A8
F0
20
20
ENDCHAR
STARTCHAR percent
ENCODING 37
SWIDTH 42 0
DWIDTH 9 0
BBX 11 10 0 0
BITMAP
7060
88C0
8980
8B00
7600
0DC0
1A20
3220
6220
C1C0
ENDCHAR
STARTCHAR ampersand
ENCODING 38
SWIDTH 42 0
DWIDTH 10 0
BBX 10 10 0 0
BITMAP
1C00
2200
2200
3200
7C00
89C0
8480
8280
C100
7FC0
ENDCHAR
STARTCHAR quoteright
ENCODING 39
SWIDTH 42 0
DWIDTH 4 0
BBX 2 3 1 7
BITMAP
C0
40
C0
ENDCHAR
STARTCHAR parenleft
ENCODING 40
SWIDTH 42 0
DWIDTH 4 0
BBX 3 13 1 -3
BITMAP
20
40
40
80
80
80
80
80
80
80
40
40
20
ENDCHAR
STARTCHAR parenright
ENCODING 41
SWIDTH 42 0
DWIDTH 4 0
BBX 3 13 1 -3
BITMAP
80
40
40
20
20
20
20
20
20
20
40
80
80
ENDCHAR
STARTCHAR asterisk
ENCODING 42
SWIDTH 42 0
DWIDTH 7 0
BBX 5 5 1 5
BITMAP
20
A8
50
50
50
ENDCHAR
STARTCHAR plus
ENCODING 43
SWIDTH 42 0
DWIDTH 9 0
BBX 9 8 0 0
BITMAP
0800
0800
0800
0800
FF80
0800
0800
0800
ENDCHAR
STARTCHAR comma
ENCODING 44
SWIDTH 42 0
DWIDTH 4 0
BBX 2 5 1 -3
BITMAP
C0
C0
40
40
80
ENDCHAR
STARTCHAR minus
ENCODING 45
SWIDTH 42 0
DWIDTH 9 0
BBX 8 1 0 3
BITMAP
FF
ENDCHAR
STARTCHAR period
ENCODING 46
SWIDTH 42 0
DWIDTH 4 0
BBX 2 1 1 0
BITMAP
C0
ENDCHAR
STARTCHAR slash
ENCODING 47
SWIDTH 42 0
DWIDTH 7 0
BBX 7 13 0 -3
BITMAP
02
04
04
08
08
18
10
30
20
20
40
40
80
ENDCHAR
STARTCHAR zero
ENCODING 48
SWIDTH 42 0
DWIDTH 9 0
BBX 7 10 1 0
BITMAP
38
44
82
82
82
82
82
82
44
38
ENDCHAR
STARTCHAR one
ENCODING 49
SWIDTH 42 0
DWIDTH 9 0
BBX 5 10 2 0
BITMAP
E0
20
20
20
20
20
20
20
20
F8
ENDCHAR
STARTCHAR two
ENCODING 50
SWIDTH 42 0
DWIDTH 9 0
BBX 6 10 1 0
BITMAP
78
8C
84
04
0C
18
20
40
80
FC
ENDCHAR
STARTCHAR three
ENCODING 51
SWIDTH 42 0
DWIDTH 9 0
BBX 6 10 1 0
BITMAP
F8
84
84
04
78
0C
04
84
8C
F8
ENDCHAR
STARTCHAR four
ENCODING 52
SWIDTH 42 0
DWIDTH 9 0
BBX 7 10 1 0
BITMAP
0C
0C
14
24
44
C4
FE
04
04
0E
ENDCHAR
STARTCHAR five
ENCODING 53
SWIDTH 42 0
DWIDTH 9 0
BBX 5 10 2 0
BITMAP
F8
80
80
E0
10
08
08
88
90
F0
ENDCHAR
STARTCHAR six
ENCODING 54
SWIDTH 42 0
DWIDTH 9 0
BBX 7 10 1 0
BITMAP
3E
42
C2
80
BC
C2
82
82
46
3C
ENDCHAR
STARTCHAR seven
ENCODING 55
SWIDTH 42 0
DWIDTH 9 0
BBX 6 10 2 0
BITMAP
FC
04
08
10
10
20
60
40
C0
80
ENDCHAR
STARTCHAR eight
ENCODING 56
SWIDTH 42 0
DWIDTH 9 0
BBX 7 10 1 0
BITMAP
7C
C6
82
C2
7C
8C
82
82
C6
7C
ENDCHAR
STARTCHAR nine
ENCODING 57
SWIDTH 42 0
DWIDTH 9 0
BBX 7 10 1 0
BITMAP
78
C4
82
82
86
7A
02
84
84
F8
ENDCHAR
STARTCHAR colon
ENCODING 58
SWIDTH 42 0
DWIDTH 4 0
BBX 1 7 1 0
BITMAP
80
00
00
00
00
00
80
ENDCHAR
STARTCHAR semicolon
ENCODING 59
SWIDTH 42 0
DWIDTH 4 0
BBX 1 10 1 -3
BITMAP
80
00
00
00
00
00
80
80
80
80
ENDCHAR
STARTCHAR less
ENCODING 60
SWIDTH 42 0
DWIDTH 9 0
BBX 8 8 0 0
BITMAP
01
06
18
E0
60
18
06
01
ENDCHAR
STARTCHAR equal
ENCODING 61
SWIDTH 42 0
DWIDTH 9 0
BBX 8 4 0 2
BITMAP
FF
00
00
FF
ENDCHAR
STARTCHAR greater
ENCODING 62
SWIDTH 42 0
DWIDTH 9 0
BBX 8 8 0 0
BITMAP
80
60
18
06
07
18
60
80
ENDCHAR
STARTCHAR question
ENCODING 63
SWIDTH 42 0
DWIDTH 7 0
BBX 5 10 1 0
BITMAP
F0
88
88
08
10
20
20
20
00
20
ENDCHAR
STARTCHAR at
ENCODING 64
SWIDTH 42 0
DWIDTH 12 0
BBX 11 10 1 0
BITMAP
0F80
30C0
6720
4A20
9220
9220
9740
9DC0
6200
3C00
ENDCHAR
STARTCHAR A
ENCODING 65
SWIDTH 42 0
DWIDTH 10 0
BBX 10 10 0 0
BITMAP
0800
0C00
1C00
1400
1200
2200
3F00
4100
4180
E3C0
ENDCHAR
STARTCHAR B
ENCODING 66
SWIDTH 42 0
DWIDTH 9 0
BBX 7 10 1 0
BITMAP
FC
42
42
44
7C
46
42
42
46
FC
ENDCHAR
STARTCHAR C
ENCODING 67
SWIDTH 42 0
DWIDTH 10 0
BBX 8 10 1 0
BITMAP
1F
61
41
80
80
80
80
40
61
3E
ENDCHAR
STARTCHAR D
ENCODING 68
SWIDTH 42 0
DWIDTH 11 0
BBX 9 10 1 0
BITMAP
FE00
4300
4180
4080
4080
4080
4080
4080
4100
FE00
ENDCHAR
STARTCHAR E
ENCODING 69
SWIDTH 42 0
DWIDTH 8 0
BBX 6 10 1 0
BITMAP
FC
44
40
48
78
48
40
40
44
FC
ENDCHAR
STARTCHAR F
ENCODING 70
SWIDTH 42 0
DWIDTH 8 0
BBX 7 10 0 0
BITMAP
FE
42
40
44
7C
44
40
40
40
F0
ENDCHAR
STARTCHAR G
ENCODING 71
SWIDTH 42 0
DWIDTH 10 0
BBX 9 10 1 0
BITMAP
1F00
6100
4100
8000
8000
8380
8100
4100
6100
3F00
ENDCHAR
STARTCHAR H
ENCODING 72
SWIDTH 42 0
DWIDTH 11 0
BBX 10 10 0 0
BITMAP
E1C0
4080
4080
4080
7F80
4080
4080
4080
4080
E1C0
ENDCHAR
STARTCHAR I
ENCODING 73
SWIDTH 42 0
DWIDTH 5 0
BBX 3 10 1 0
BITMAP
E0
40
40
40
40
40
40
40
40
E0
ENDCHAR
STARTCHAR J
ENCODING 74
SWIDTH 42 0
DWIDTH 6 0
BBX 5 13 0 -3
BITMAP
38
10
10
10
10
10
10
10
10
10
10
90
E0
ENDCHAR
STARTCHAR K
ENCODING 75
SWIDTH 42 0
DWIDTH 10 0
BBX 10 10 0 0
BITMAP
E780
4300
4400
5800
7000
5000
4C00
4600
4300
E7C0
ENDCHAR
STARTCHAR L
ENCODING 76
SWIDTH 42 0
DWIDTH 8 0
BBX 7 10 0 0
BITMAP
E0
40
40
40
40
40
40
40
42
FE
ENDCHAR
STARTCHAR M
ENCODING 77
SWIDTH 42 0
DWIDTH 12 0
BBX 11 10 1 0
BITMAP
E0E0
60C0
51C0
5140
5940
4A40
4A40
4440
4440
E0E0
ENDCHAR
STARTCHAR N
ENCODING 78
SWIDTH 42 0
DWIDTH 11 0
BBX 9 10 1 0
BITMAP
C380
6100
7100
5100
4900
4D00
4500
4300
4100
E100
ENDCHAR
STARTCHAR O
ENCODING 79
SWIDTH 42 0
DWIDTH 11 0
BBX 9 10 1 0
BITMAP
3E00
6300
4100
8080
8080
8080
8080
4100
6300
3E00
ENDCHAR
STARTCHAR P
ENCODING 80
SWIDTH 42 0
DWIDTH 8 0
BBX 7 10 1 0
BITMAP
FC
42
42
42
46
7C
40
40
40
E0
ENDCHAR
STARTCHAR Q
ENCODING 81
SWIDTH 42 0
DWIDTH 11 0
BBX 11 13 1 -3
BITMAP
3E00
6300
4100
8080
8080
8080
8080
4180
6300
3F00
0200
01C0
00E0
ENDCHAR
STARTCHAR R
ENCODING 82
SWIDTH 42 0
DWIDTH 9 0
BBX 9 10 0 0
BITMAP
FC00
4200
4200
4200
4400
7800
4C00
4400
4200
E180
ENDCHAR
STARTCHAR S
ENCODING 83
SWIDTH 42 0
DWIDTH 8 0
BBX 6 10 1 0
BITMAP
7C
84
84
C0
60
18
04
84
8C
F8
ENDCHAR
STARTCHAR T
ENCODING 84
SWIDTH 42 0
DWIDTH 9 0
BBX 9 10 0 0
BITMAP
FF80
0800
0800
0800
0800
0800
0800
0800
0800
1C00
ENDCHAR
STARTCHAR U
ENCODING 85
SWIDTH 42 0
DWIDTH 10 0
BBX 9 10 1 0
BITMAP
E380
4100
4100
4100
4100
4100
4100
4100
6300
3E00
ENDCHAR
STARTCHAR V
ENCODING 86
SWIDTH 42 0
DWIDTH 10 0
BBX 10 10 0 0
BITMAP
F1C0
6080
2080
2100
1100
1300
0A00
0A00
0C00
0400
ENDCHAR
STARTCHAR W
ENCODING 87
SWIDTH 42 0
DWIDTH 13 0
BBX 13 10 0 0
BITMAP
F238
4210
2710
2520
2520
2520
18C0
18C0
18C0
1040
ENDCHAR
STARTCHAR X
ENCODING 88
SWIDTH 42 0
DWIDTH 9 0
BBX 9 10 0 0
BITMAP
F380
2100
2200
1400
0C00
1C00
3400
2200
4300
E780
ENDCHAR
STARTCHAR Y
ENCODING 89
SWIDTH 42 0
DWIDTH 9 0
BBX 9 10 0 0
BITMAP
F380
6100
2300
1200
0C00
0800
0800
0800
0800
1C00
ENDCHAR
STARTCHAR Z
ENCODING 90
SWIDTH 42 0
DWIDTH 9 0
BBX 7 10 1 0
BITMAP
FE
84
0C
08
10
10
20
40
42
FE
ENDCHAR
STARTCHAR bracketleft
ENCODING 91
SWIDTH 42 0
DWIDTH 4 0
BBX 3 13 1 -3
BITMAP
E0
80
80
80
80
80
80
80
80
80
80
80
E0
ENDCHAR
STARTCHAR backslash
ENCODING 92
SWIDTH 42 0
DWIDTH 7 0
BBX 7 13 0 -3
BITMAP
80
40
40
20
20
30
10
18
08
08
04
04
02
ENDCHAR
STARTCHAR bracketright
ENCODING 93
SWIDTH 42 0
DWIDTH 4 0
BBX 3 13 0 -3
BITMAP
E0
20
20
20
20
20
20
20
20
20
20
20
E0
ENDCHAR
STARTCHAR asciicircum
ENCODING 94
SWIDTH 42 0
DWIDTH 9 0
BBX 8 8 0 2
BITMAP
08
18
18
24
24
42
42
81
ENDCHAR
STARTCHAR underscore
ENCODING 95
SWIDTH 42 0
DWIDTH 7 0
BBX 6 1 1 -2
BITMAP
FC
ENDCHAR
STARTCHAR quoteleft
ENCODING 96
SWIDTH 42 0
DWIDTH 4 0
BBX 2 3 1 7
BITMAP
C0
80
C0
ENDCHAR
STARTCHAR a
ENCODING 97
SWIDTH 42 0
DWIDTH 8 0
BBX 7 7 0 0
BITMAP
78
84
04
7C
84
84
7E
ENDCHAR
STARTCHAR b
ENCODING 98
SWIDTH 42 0
DWIDTH 9 0
BBX 8 10 0 0
BITMAP
C0
40
40
5E
63
41
41
41
42
7C
ENDCHAR
STARTCHAR c
ENCODING 99
SWIDTH 42 0
DWIDTH 7 0
BBX 6 7 1 0
BITMAP
3C
44
84
80
80
40
3C
ENDCHAR
STARTCHAR d
ENCODING 100
SWIDTH 42 0
DWIDTH 9 0
BBX 8 10 1 0
BITMAP
06
02
02
3E
42
82
82
82
C6
7B
ENDCHAR
STARTCHAR e
ENCODING 101
SWIDTH 42 0
DWIDTH 7 0
BBX 6 7 1 0
BITMAP
78
C4
84
FC
80
44
38
ENDCHAR
STARTCHAR f
ENCODING 102
SWIDTH 42 0
DWIDTH 6 0
BBX 5 11 1 0
BITMAP
38
48
48
40
F0
40
40
40
40
40
F0
ENDCHAR
STARTCHAR g
ENCODING 103
SWIDTH 42 0
DWIDTH 8 0
BBX 8 10 0 -3
BITMAP
3F
66
42
62
3C
40
7F
81
81
7E
ENDCHAR
STARTCHAR h
ENCODING 104
SWIDTH 42 0
DWIDTH 9 0
BBX 8 10 1 0
BITMAP
C0
40
40
5C
62
42
42
42
42
E7
ENDCHAR
STARTCHAR i
ENCODING 105
SWIDTH 42 0
DWIDTH 4 0
BBX 3 10 1 0
BITMAP
40
00
00
C0
40
40
40
40
40
E0
ENDCHAR
STARTCHAR j
ENCODING 106
SWIDTH 42 0
DWIDTH 5 0
BBX 4 13 0 -3
BITMAP
10
00
00
30
10
10
10
10
10
10
90
90
E0
ENDCHAR
STARTCHAR k
ENCODING 107
SWIDTH 42 0
DWIDTH 8 0
BBX 8 10 0 0
BITMAP
C0
40
40
4E
4C
58
60
58
4C
E7
ENDCHAR
STARTCHAR l
ENCODING 108
SWIDTH 42 0
DWIDTH 4 0
BBX 3 10 1 0
BITMAP
C0
40
40
40
40
40
40
40
40
E0
ENDCHAR
STARTCHAR m
ENCODING 109
SWIDTH 42 0
DWIDTH 13 0
BBX 13 7 0 0
BITMAP
DCE0
6310
4210
4210
4210
4210
E738
ENDCHAR
STARTCHAR n
ENCODING 110
SWIDTH 42 0
DWIDTH 9 0
BBX 8 7 1 0
BITMAP
DC
62
42
42
42
42
E7
ENDCHAR
STARTCHAR o
ENCODING 111
SWIDTH 42 0
DWIDTH 8 0
BBX 7 7 1 0
BITMAP
38
44
82
82
82
44
38
ENDCHAR
STARTCHAR p
ENCODING 112
SWIDTH 42 0
DWIDTH 9 0
BBX 8 10 0 -3
BITMAP
DE
63
41
41
41
42
7C
40
40
E0
ENDCHAR
STARTCHAR q
ENCODING 113
SWIDTH 42 0
DWIDTH 9 0
BBX 8 10 1 -3
BITMAP
3E
42
82
82
82
C6
7A
02
02
07
ENDCHAR
STARTCHAR r
ENCODING 114
SWIDTH 42 0
DWIDTH 6 0
BBX 5 7 0 0
BITMAP
F8
48
48
40
40
40
E0
ENDCHAR
STARTCHAR s
ENCODING 115
SWIDTH 42 0
DWIDTH 7 0
BBX 5 7 1 0
BITMAP
78
88
88
70
88
88
F0
ENDCHAR
STARTCHAR t
ENCODING 116
SWIDTH 42 0
DWIDTH 5 0
BBX 4 9 1 0
BITMAP
40
40
F0
40
40
40
40
40
70
ENDCHAR
STARTCHAR u
ENCODING 117
SWIDTH 42 0
DWIDTH 9 0
BBX 8 7 0 0
BITMAP
C6
42
42
42
42
46
3B
ENDCHAR
STARTCHAR v
ENCODING 118
SWIDTH 42 0
DWIDTH 8 0
BBX 8 7 0 0
BITMAP
E3
43
22
24
14
18
08
ENDCHAR
STARTCHAR w
ENCODING 119
SWIDTH 42 0
DWIDTH 11 0
BBX 11 7 0 0
BITMAP
E460
4460
4E40
2A40
2980
3180
1100
ENDCHAR
STARTCHAR x
ENCODING 120
SWIDTH 42 0
DWIDTH 8 0
BBX 8 7 0 0
BITMAP
E7
62
34
18
2C
46
E7
ENDCHAR
STARTCHAR y
ENCODING 121
SWIDTH 42 0
DWIDTH 8 0
BBX 8 10 0 -3
BITMAP
F3
43
22
26
14
1C
18
08
10
70
ENDCHAR
STARTCHAR z
ENCODING 122
SWIDTH 42 0
DWIDTH 8 0
BBX 6 7 1 0
BITMAP
FC
88
10
20
20
44
FC
ENDCHAR
STARTCHAR braceleft
ENCODING 123
SWIDTH 42 0
DWIDTH 5 0
BBX 4 13 0 -3
BITMAP
30
40
40
40
40
40
80
40
40
40
40
40
30
ENDCHAR
STARTCHAR bar
ENCODING 124
SWIDTH 42 0
DWIDTH 3 0
BBX 1 13 1 -3
BITMAP
80
80
80
80
80
80
80
80
80
80
80
80
80
ENDCHAR
STARTCHAR braceright
ENCODING 125
SWIDTH 42 0
DWIDTH 5 0
BBX 4 13 1 -3
BITMAP
C0
20
20
20
20
20
10
20
20
20
20
20
C0
ENDCHAR
STARTCHAR asciitilde
ENCODING 126
SWIDTH 42 0
DWIDTH 9 0
BBX 8 3 0 2
BITMAP
61
99
86
ENDCHAR
STARTCHAR exclamdown
ENCODING 161
SWIDTH 42 0
DWIDTH 4 0
BBX 1 10 1 -3
BITMAP
80
00
00
80
80
80
80
80
80
80
ENDCHAR
STARTCHAR cent
ENCODING 162
SWIDTH 42 0
DWIDTH 9 0
BBX 6 10 1 0
BITMAP
10
1C
74
94
90
90
90
50
3C
10
ENDCHAR
STARTCHAR sterling
ENCODING 163
SWIDTH 42 0
DWIDTH 9 0
BBX 5 10 2 0
BITMAP
38
48
48
40
40
E0
40
40
40
F8
ENDCHAR
STARTCHAR currency
ENCODING 164
SWIDTH 42 0
DWIDTH 9 0
BBX 8 8 0 1
BITMAP
81
5A
24
42
42
66
5A
81
ENDCHAR
STARTCHAR yen
ENCODING 165
SWIDTH 42 0
DWIDTH 9 0
BBX 9 10 0 0
BITMAP
F380
6300
1600
0C00
3E00
0800
3E00
0800
0800
1C00
ENDCHAR
STARTCHAR brokenbar
ENCODING 166
SWIDTH 42 0
DWIDTH 3 0
BBX 1 13 1 -3
BITMAP
80
80
80
80
80
80
00
80
80
80
80
80
80
ENDCHAR
STARTCHAR section
ENCODING 167
SWIDTH 42 0
DWIDTH 9 0
BBX 6 13 1 -3
BITMAP
7C
C4
84
80
60
98
84
44
38
04
84
C4
F8
ENDCHAR
STARTCHAR dieresis
ENCODING 168
SWIDTH 42 0
DWIDTH 8 0
BBX 4 1 2 9
BITMAP
90
ENDCHAR
STARTCHAR copyright
ENCODING 169
SWIDTH 42 0
DWIDTH 12 0
BBX 10 10 1 0
BITMAP
1E00
6180
4E80
9240
9040
9040
9840
4E80
6180
1E00
ENDCHAR
STARTCHAR ordfeminine
ENCODING 170
SWIDTH 42 0
DWIDTH 6 0
BBX 6 5 0 5
BITMAP
F8
88
78
88
FC
ENDCHAR
STARTCHAR guillemotleft
ENCODING 171
SWIDTH 42 0
DWIDTH 7 0
BBX 6 7 1 0
BITMAP
24
28
58
D0
58
28
24
ENDCHAR
STARTCHAR logicalnot
ENCODING 172
SWIDTH 42 0
DWIDTH 9 0
BBX 8 4 0 2
BITMAP
FF
01
01
01
ENDCHAR
STARTCHAR hyphen
ENCODING 173
SWIDTH 42 0
DWIDTH 5 0
BBX 3 1 1 4
BITMAP
E0
ENDCHAR
STARTCHAR registered
ENCODING 174
SWIDTH 42 0
DWIDTH 9 0
BBX 7 6 1 4
BITMAP
78
FC
AA
B2
6E
38
ENDCHAR
STARTCHAR macron
ENCODING 175
SWIDTH 42 0
DWIDTH 8 0
BBX 4 1 2 9
BITMAP
F0
ENDCHAR
STARTCHAR degree
ENCODING 176
SWIDTH 42 0
DWIDTH 4 0
BBX 3 2 2 8
BITMAP
E0
60
ENDCHAR
STARTCHAR plusminus
ENCODING 177
SWIDTH 42 0
DWIDTH 9 0
BBX 9 8 0 0
BITMAP
0800
0800
FF80
0800
0800
0800
0000
FF80
ENDCHAR
STARTCHAR twosuperior
ENCODING 178
SWIDTH 42 0
DWIDTH 5 0
BBX 4 6 -8 4
BITMAP
E0
90
10
60
C0
F0
ENDCHAR
STARTCHAR threesuperior
ENCODING 179
SWIDTH 42 0
DWIDTH 5 0
BBX 4 6 -8 4
BITMAP
F0
90
60
30
90
E0
ENDCHAR
STARTCHAR acute
ENCODING 180
SWIDTH 42 0
DWIDTH 8 0
BBX 3 1 3 9
BITMAP
E0
ENDCHAR
STARTCHAR mu
ENCODING 181
SWIDTH 42 0
DWIDTH 9 0
BBX 8 10 0 -3
BITMAP
C6
42
42
42
42
46
7B
40
40
40
ENDCHAR
STARTCHAR paragraph
ENCODING 182
SWIDTH 42 0
DWIDTH 9 0
BBX 6 13 1 -3
BITMAP
7C
F4
F4
F4
74
34
14
14
14
14
14
14
14
ENDCHAR
STARTCHAR periodcentered
ENCODING 183
SWIDTH 42 0
DWIDTH 9 0
BBX 1 1 4 4
BITMAP
80
ENDCHAR
STARTCHAR cedilla
ENCODING 184
SWIDTH 42 0
DWIDTH 8 0
BBX 2 3 3 -3
BITMAP
C0
40
C0
ENDCHAR
STARTCHAR onesuperior
ENCODING 185
SWIDTH 42 0
DWIDTH 5 0
BBX 3 6 -8 4
BITMAP
C0
40
40
40
40
E0
ENDCHAR
STARTCHAR ordmasculine
ENCODING 186
SWIDTH 42 0
DWIDTH 6 0
BBX 5 5 0 5
BITMAP
70
88
88
88
70
ENDCHAR
STARTCHAR guillemotright
ENCODING 187
SWIDTH 42 0
DWIDTH 7 0
BBX 6 7 1 0
BITMAP
90
50
68
2C
68
50
90
ENDCHAR
STARTCHAR onequarter
ENCODING 188
SWIDTH 42 0
DWIDTH 11 0
BBX 10 10 3 0
BITMAP
C180
4100
4200
4400
4D80
FB80
1680
27C0
4080
C1C0
ENDCHAR
STARTCHAR onehalf
ENCODING 189
SWIDTH 42 0
DWIDTH 11 0
BBX 9 10 3 0
BITMAP
C180
4100
4200
4400
4F00
FC80
1080
2300
4600
C780
ENDCHAR
STARTCHAR threequarters
ENCODING 190
SWIDTH 42 0
DWIDTH 11 0
BBX 10 10 3 0
BITMAP
F180
9100
6200
3400
9D80
FB80
1680
27C0
4080
C1C0
ENDCHAR
STARTCHAR questiondown
ENCODING 191
SWIDTH 42 0
DWIDTH 7 0
BBX 5 10 1 -3
BITMAP
20
00
20
20
20
40
80
88
88
78
ENDCHAR
STARTCHAR Agrave
ENCODING 192
SWIDTH 42 0
DWIDTH 10 0
BBX 10 12 0 0
BITMAP
1C00
0000
0800
0C00
1C00
1400
1200
2200
3F00
4100
4180
E3C0
ENDCHAR
STARTCHAR Aacute
ENCODING 193
SWIDTH 42 0
DWIDTH 10 0
BBX 10 12 0 0
BITMAP
0E00
0000
0800
0C00
1C00
1400
1200
2200
3F00
4100
4180
E3C0
ENDCHAR
STARTCHAR Acircumflex
ENCODING 194
SWIDTH 42 0
DWIDTH 10 0
BBX 10 12 0 0
BITMAP
3E00
0000
0800
0C00
1C00
1400
1200
2200
3F00
4100
4180
E3C0
ENDCHAR
STARTCHAR Atilde
ENCODING 195
SWIDTH 42 0
DWIDTH 10 0
BBX 10 12 0 0
BITMAP
1F00
0000
0800
0C00
1C00
1400
1200
2200
3F00
4100
4180
E3C0
ENDCHAR
STARTCHAR Adieresis
ENCODING 196
SWIDTH 42 0
DWIDTH 10 0
BBX 10 12 0 0
BITMAP
1200
0000
0800
0C00
1C00
1400
1200
2200
3F00
4100
4180
E3C0
ENDCHAR
STARTCHAR Aring
ENCODING 197
SWIDTH 42 0
DWIDTH 10 0
BBX 10 13 0 0
BITMAP
0C00
1200
0C00
0800
0C00
1C00
1400
1200
2200
3F00
4100
4180
E3C0
ENDCHAR
STARTCHAR AE
ENCODING 198
SWIDTH 42 0
DWIDTH 13 0
BBX 13 10 0 0
BITMAP
03F8
0308
0700
0D10
09F0
1110
3F00
2100
4108
E3F8
ENDCHAR
STARTCHAR Ccedilla
ENCODING 199
SWIDTH 42 0
DWIDTH 10 0
BBX 8 13 1 -3
BITMAP
1F
61
41
80
80
80
80
40
61
3E
08
08
18
ENDCHAR
STARTCHAR Egrave
ENCODING 200
SWIDTH 42 0
DWIDTH 8 0
BBX 6 12 1 0
BITMAP
70
00
FC
44
40
48
78
48
40
40
44
FC
ENDCHAR
STARTCHAR Eacute
ENCODING 201
SWIDTH 42 0
DWIDTH 8 0
BBX 6 12 1 0
BITMAP
38
00
FC
44
40
48
78
48
40
40
44
FC
ENDCHAR
STARTCHAR Ecircumflex
ENCODING 202
SWIDTH 42 0
DWIDTH 8 0
BBX 6 12 1 0
BITMAP
7C
00
FC
44
40
48
78
48
40
40
44
FC
ENDCHAR
STARTCHAR Edieresis
ENCODING 203
SWIDTH 42 0
DWIDTH 8 0
BBX 6 12 1 0
BITMAP
48
00
FC
44
40
48
78
48
40
40
44
FC
ENDCHAR
STARTCHAR Igrave
ENCODING 204
SWIDTH 42 0
DWIDTH 5 0
BBX 3 12 1 0
BITMAP
E0
00
E0
40
40
40
40
40
40
40
40
E0
ENDCHAR
STARTCHAR Iacute
ENCODING 205
SWIDTH 42 0
DWIDTH 5 0
BBX 3 12 1 0
BITMAP
E0
00
E0
40
40
40
40
40
40
40
40
E0
ENDCHAR
STARTCHAR Icircumflex
ENCODING 206
SWIDTH 42 0
DWIDTH 5 0
BBX 5 12 2 0
BITMAP
F8
00
70
20
20
20
20
20
20
20
20
70
ENDCHAR
STARTCHAR Idieresis
ENCODING 207
SWIDTH 42 0
DWIDTH 5 0
BBX 4 12 2 0
BITMAP
90
00
70
20
20
20
20
20
20
20
20
70
ENDCHAR
STARTCHAR Eth
ENCODING 208
SWIDTH 42 0
DWIDTH 11 0
BBX 9 10 1 0
BITMAP
FE00
4300
4180
4080
F080
4080
4080
4080
4100
FE00
ENDCHAR
STARTCHAR Ntilde
ENCODING 209
SWIDTH 42 0
DWIDTH 11 0
BBX 9 12 1 0
BITMAP
3E00
0000
C380
6100
7100
5100
4900
4D00
4500
4300
4100
E100
ENDCHAR
STARTCHAR Ograve
ENCODING 210
SWIDTH 42 0
DWIDTH 11 0
BBX 9 12 1 0
BITMAP
1C00
0000
3E00
6300
4100
8080
8080
8080
8080
4100
6300
3E00
ENDCHAR
STARTCHAR Oacute
ENCODING 211
SWIDTH 42 0
DWIDTH 11 0
BBX 9 12 1 0
BITMAP
1C00
0000
3E00
6300
4100
8080
8080
8080
8080
4100
6300
3E00
ENDCHAR
STARTCHAR Ocircumflex
ENCODING 212
SWIDTH 42 0
DWIDTH 11 0
BBX 9 12 1 0
BITMAP
3E00
0000
3E00
6300
4100
8080
8080
8080
8080
4100
6300
3E00
ENDCHAR
STARTCHAR Otilde
ENCODING 213
SWIDTH 42 0
DWIDTH 11 0
BBX 9 12 1 0
BITMAP
3E00
0000
3E00
6300
4100
8080
8080
8080
8080
4100
6300
3E00
ENDCHAR
STARTCHAR Odieresis
ENCODING 214
SWIDTH 42 0
DWIDTH 11 0
BBX 9 12 1 0
BITMAP
2400
0000
3E00
6300
4100
8080
8080
8080
8080
4100
6300
3E00
ENDCHAR
STARTCHAR multiply
ENCODING 215
SWIDTH 42 0
DWIDTH 9 0
BBX 8 8 0 0
BITMAP
81
42
24
18
18
24
42
81
ENDCHAR
STARTCHAR Oslash
ENCODING 216
SWIDTH 42 0
DWIDTH 11 0
BBX 9 10 1 0
BITMAP
3E80
6180
4180
8680
8C80
9880
B080
E100
4300
BE00
ENDCHAR
STARTCHAR Ugrave
ENCODING 217
SWIDTH 42 0
DWIDTH 10 0
BBX 9 12 1 0
BITMAP
1C00
0000
E380
4100
4100
4100
4100
4100
4100
4100
6300
3E00
ENDCHAR
STARTCHAR Uacute
ENCODING 218
SWIDTH 42 0
DWIDTH 10 0
BBX 9 12 1 0
BITMAP
1C00
0000
E380
4100
4100
4100
4100
4100
4100
4100
6300
3E00
ENDCHAR
STARTCHAR Ucircumflex
ENCODING 219
SWIDTH 42 0
DWIDTH 10 0
BBX 9 12 1 0
BITMAP
3E00
0000
E380
4100
4100
4100
4100
4100
4100
4100
6300
3E00
ENDCHAR
STARTCHAR Udieresis
ENCODING 220
SWIDTH 42 0
DWIDTH 10 0
BBX 9 12 1 0
BITMAP
1200
0000
E380
4100
4100
4100
4100
4100
4100
4100
6300
3E00
ENDCHAR
STARTCHAR Yacute
ENCODING 221
SWIDTH 42 0
DWIDTH 9 0
BBX 9 12 0 0
BITMAP
1C00
0000
F380
6100
2300
1200
0C00
0800
0800
0800
0800
1C00
ENDCHAR
STARTCHAR Thorn
ENCODING 222
SWIDTH 42 0
DWIDTH 8 0
BBX 7 10 1 0
BITMAP
E0
40
7C
42
42
42
44
78
40
E0
ENDCHAR
STARTCHAR germandbls
ENCODING 223
SWIDTH 42 0
DWIDTH 9 0
BBX 6 11 1 0
BITMAP
30
48
48
50
50
50
48
4C
44
54
F8
ENDCHAR
STARTCHAR agrave
ENCODING 224
SWIDTH 42 0
DWIDTH 8 0
BBX 7 9 0 0
BITMAP
38
00
78
84
04
7C
84
84
7E
ENDCHAR
STARTCHAR aacute
ENCODING 225
SWIDTH 42 0
DWIDTH 8 0
BBX 7 9 0 0
BITMAP
38
00
78
84
04
7C
84
84
7E
ENDCHAR
STARTCHAR acircumflex
ENCODING 226
SWIDTH 42 0
DWIDTH 8 0
BBX 7 9 0 0
BITMAP
7C
00
78
84
04
7C
84
84
7E
ENDCHAR
STARTCHAR atilde
ENCODING 227
SWIDTH 42 0
DWIDTH 8 0
BBX 7 9 0 0
BITMAP
7C
00
78
84
04
7C
84
84
7E
ENDCHAR
STARTCHAR adieresis
ENCODING 228
SWIDTH 42 0
DWIDTH 8 0
BBX 7 9 0 0
BITMAP
48
00
78
84
04
7C
84
84
7E
ENDCHAR
STARTCHAR aring
ENCODING 229
SWIDTH 42 0
DWIDTH 8 0
BBX 7 10 0 0
BITMAP
30
48
00
78
84
04
7C
84
84
7E
ENDCHAR
STARTCHAR ae
ENCODING 230
SWIDTH 42 0
DWIDTH 11 0
BBX 10 7 1 0
BITMAP
7B80
8C40
0840
7FC0
8800
8C40
7380
ENDCHAR
STARTCHAR ccedilla
ENCODING 231
SWIDTH 42 0
DWIDTH 7 0
BBX 6 10 1 -3
BITMAP
3C
44
84
80
80
40
3C
10
10
30
ENDCHAR
STARTCHAR egrave
ENCODING 232
SWIDTH 42 0
DWIDTH 7 0
BBX 6 9 1 0
BITMAP
70
00
78
C4
84
FC
80
44
38
ENDCHAR
STARTCHAR eacute
ENCODING 233
SWIDTH 42 0
DWIDTH 7 0
BBX 6 9 1 0
BITMAP
38
00
78
C4
84
FC
80
44
38
ENDCHAR
STARTCHAR ecircumflex
ENCODING 234
SWIDTH 42 0
DWIDTH 7 0
BBX 6 9 1 0
BITMAP
7C
00
78
C4
84
FC
80
44
38
ENDCHAR
STARTCHAR edieresis
ENCODING 235
SWIDTH 42 0
DWIDTH 7 0
BBX 6 9 1 0
BITMAP
48
00
78
C4
84
FC
80
44
38
ENDCHAR
STARTCHAR igrave
ENCODING 236
SWIDTH 42 0
DWIDTH 4 0
BBX 3 9 1 0
BITMAP
E0
00
C0
40
40
40
40
40
E0
ENDCHAR
STARTCHAR iacute
ENCODING 237
SWIDTH 42 0
DWIDTH 4 0
BBX 3 9 1 0
BITMAP
E0
00
C0
40
40
40
40
40
E0
ENDCHAR
STARTCHAR icircumflex
ENCODING 238
SWIDTH 42 0
DWIDTH 4 0
BBX 5 9 2 0
BITMAP
F8
00
60
20
20
20
20
20
70
ENDCHAR
STARTCHAR idieresis
ENCODING 239
SWIDTH 42 0
DWIDTH 4 0
BBX 4 9 2 0
BITMAP
90
00
60
20
20
20
20
20
70
ENDCHAR
STARTCHAR eth
ENCODING 240
SWIDTH 42 0
DWIDTH 8 0
BBX 7 10 1 0
BITMAP
FC
38
4C
3C
46
82
82
82
44
38
ENDCHAR
STARTCHAR ntilde
ENCODING 241
SWIDTH 42 0
DWIDTH 9 0
BBX 8 9 1 0
BITMAP
7C
00
DC
62
42
42
42
42
E7
ENDCHAR
STARTCHAR ograve
ENCODING 242
SWIDTH 42 0
DWIDTH 8 0
BBX 7 9 1 0
BITMAP
38
00
38
44
82
82
82
44
38
ENDCHAR
STARTCHAR oacute
ENCODING 243
SWIDTH 42 0
DWIDTH 8 0
BBX 7 9 1 0
BITMAP
38
00
38
44
82
82
82
44
38
ENDCHAR
STARTCHAR ocircumflex
ENCODING 244
SWIDTH 42 0
DWIDTH 8 0
BBX 7 9 1 0
BITMAP
7C
00
38
44
82
82
82
44
38
ENDCHAR
STARTCHAR otilde
ENCODING 245
SWIDTH 42 0
DWIDTH 8 0
BBX 7 9 1 0
BITMAP
7C
00
38
44
82
82
82
44
38
ENDCHAR
STARTCHAR odieresis
ENCODING 246
SWIDTH 42 0
DWIDTH 8 0
BBX 7 9 1 0
BITMAP
48
00
38
44
82
82
82
44
38
ENDCHAR
STARTCHAR divide
ENCODING 247
SWIDTH 42 0
DWIDTH 9 0
BBX 7 7 1 0
BITMAP
10
00
00
FE
00
00
10
ENDCHAR
STARTCHAR oslash
ENCODING 248
SWIDTH 42 0
DWIDTH 8 0
BBX 7 7 1 0
BITMAP
3A
46
8E
92
E2
C4
B8
ENDCHAR
STARTCHAR ugrave
ENCODING 249
SWIDTH 42 0
DWIDTH 9 0
BBX 8 9 0 0
BITMAP
38
00
C6
42
42
42
42
46
3B
ENDCHAR
STARTCHAR uacute
ENCODING 250
SWIDTH 42 0
DWIDTH 9 0
BBX 8 9 0 0
BITMAP
1C
00
C6
42
42
42
42
46
3B
ENDCHAR
STARTCHAR ucircumflex
ENCODING 251
SWIDTH 42 0
DWIDTH 9 0
BBX 8 9 0 0
BITMAP
3E
00
C6
42
42
42
42
46
3B
ENDCHAR
STARTCHAR udieresis
ENCODING 252
SWIDTH 42 0
DWIDTH 9 0
BBX 8 9 0 0
BITMAP
24
00
C6
42
42
42
42
46
3B
ENDCHAR
STARTCHAR yacute
ENCODING 253
SWIDTH 42 0
DWIDTH 8 0
BBX 8 12 0 -3
BITMAP
1C
00
F3
43
22
26
14
1C
18
08
10
70
ENDCHAR
STARTCHAR thorn
ENCODING 254
SWIDTH 42 0
DWIDTH 9 0
BBX 8 13 0 -3
BITMAP
C0
40
40
5E
63
41
41
41
42
7C
40
40
E0
ENDCHAR
STARTCHAR ydieresis
ENCODING 255
SWIDTH 42 0
DWIDTH 8 0
BBX 8 12 0 -3
BITMAP
24
00
F3
43
22
26
14
1C
18
08
10
70
ENDCHAR
STARTCHAR fl
ENCODING -1
SWIDTH 42 0
DWIDTH 9 0
BBX 8 11 1 0
BITMAP
3E
42
42
42
FA
42
42
42
42
42
E7
ENDCHAR
STARTCHAR endash
ENCODING -1
SWIDTH 42 0
DWIDTH 7 0
BBX 6 1 1 3
BITMAP
FC
ENDCHAR
STARTCHAR dagger
ENCODING -1
SWIDTH 42 0
DWIDTH 9 0
BBX 7 13 1 -3
BITMAP
10
10
10
10
FE
10
10
10
10
10
10
10
10
ENDCHAR
STARTCHAR Zcaron
ENCODING -1
SWIDTH 42 0
DWIDTH 9 0
BBX 7 12 1 0
BITMAP
7C
00
FE
84
0C
08
10
10
20
40
42
FE
ENDCHAR
STARTCHAR oe
ENCODING -1
SWIDTH 42 0
DWIDTH 13 0
BBX 12 7 0 0
BITMAP
3DE0
4310
8210
83F0
8200
C300
7DF0
ENDCHAR
STARTCHAR Ydieresis
ENCODING -1
SWIDTH 42 0
DWIDTH 9 0
BBX 9 12 0 0
BITMAP
2400
0000
F380
6100
2300
1200
0C00
0800
0800
0800
0800
1C00
ENDCHAR
STARTCHAR dotlessi
ENCODING -1
SWIDTH 42 0
DWIDTH 4 0
BBX 3 7 1 0
BITMAP
C0
40
40
40
40
40
E0
ENDCHAR
STARTCHAR lslash
ENCODING -1
SWIDTH 42 0
DWIDTH 4 0
BBX 5 10 0 0
BITMAP
E0
20
20
28
38
E0
20
20
20
F8
ENDCHAR
STARTCHAR Lslash
ENCODING -1
SWIDTH 42 0
DWIDTH 8 0
BBX 7 10 0 0
BITMAP
E0
40
40
50
70
C0
C0
40
42
FE
ENDCHAR
STARTCHAR daggerdbl
ENCODING -1
SWIDTH 42 0
DWIDTH 9 0
BBX 7 13 1 -3
BITMAP
10
10
10
10
FE
10
10
10
10
FE
10
10
10
ENDCHAR
STARTCHAR fi
ENCODING -1
SWIDTH 42 0
DWIDTH 9 0
BBX 8 11 1 0
BITMAP
38
4A
48
40
FE
42
42
42
42
42
F7
ENDCHAR
STARTCHAR guilsinglright
ENCODING -1
SWIDTH 42 0
DWIDTH 5 0
BBX 3 7 1 0
BITMAP
80
C0
40
20
40
40
80
ENDCHAR
STARTCHAR OE
ENCODING -1
SWIDTH 42 0
DWIDTH 14 0
BBX 13 10 1 0
BITMAP
3DF8
6308
4108
8110
81F0
8110
8100
4108
6308
3DF8
ENDCHAR
STARTCHAR emdash
ENCODING -1
SWIDTH 42 0
DWIDTH 14 0
BBX 12 1 1 3
BITMAP
FFF0
ENDCHAR
STARTCHAR caron
ENCODING -1
SWIDTH 42 0
DWIDTH 8 0
BBX 5 1 2 9
BITMAP
F8
ENDCHAR
STARTCHAR ogonek
ENCODING -1
SWIDTH 42 0
DWIDTH 8 0
BBX 2 1 3 -3
BITMAP
C0
ENDCHAR
STARTCHAR hungarumlaut
ENCODING -1
SWIDTH 42 0
DWIDTH 8 0
BBX 4 1 3 9
BITMAP
F0
ENDCHAR
STARTCHAR guilsinglleft
ENCODING -1
SWIDTH 42 0
DWIDTH 5 0
BBX 3 7 1 0
BITMAP
20
40
40
80
40
60
20
ENDCHAR
STARTCHAR dotaccent
ENCODING -1
SWIDTH 42 0
DWIDTH 8 0
BBX 1 1 4 9
BITMAP
80
ENDCHAR
STARTCHAR breve
ENCODING -1
SWIDTH 42 0
DWIDTH 8 0
BBX 5 1 2 9
BITMAP
F8
ENDCHAR
STARTCHAR bullet
ENCODING -1
SWIDTH 42 0
DWIDTH 9 0
BBX 4 4 2 2
BITMAP
60
F0
F0
60
ENDCHAR
STARTCHAR tilde
ENCODING -1
SWIDTH 42 0
DWIDTH 8 0
BBX 5 1 2 9
BITMAP
F8
ENDCHAR
STARTCHAR circumflex
ENCODING -1
SWIDTH 42 0
DWIDTH 8 0
BBX 5 1 2 9
BITMAP
F8
ENDCHAR
STARTCHAR quotedblleft
ENCODING -1
SWIDTH 42 0
DWIDTH 6 0
BBX 4 3 1 7
BITMAP
B0
A0
B0
ENDCHAR
STARTCHAR quotesingle
ENCODING -1
SWIDTH 42 0
DWIDTH 3 0
BBX 3 3 0 7
BITMAP
E0
E0
40
ENDCHAR
STARTCHAR scaron
ENCODING -1
SWIDTH 42 0
DWIDTH 7 0
BBX 5 9 1 0
BITMAP
F8
00
78
88
88
70
88
88
F0
ENDCHAR
STARTCHAR ring
ENCODING -1
SWIDTH 42 0
DWIDTH 8 0
BBX 4 3 4 9
BITMAP
60
90
60
ENDCHAR
STARTCHAR quotesinglbase
ENCODING -1
SWIDTH 42 0
DWIDTH 4 0
BBX 2 5 1 -3
BITMAP
C0
C0
40
40
80
ENDCHAR
STARTCHAR florin
ENCODING -1
SWIDTH 42 0
DWIDTH 9 0
BBX 7 13 1 -3
BITMAP
0E
12
22
20
20
F0
60
60
40
40
40
C0
C0
ENDCHAR
STARTCHAR trademark
ENCODING -1
SWIDTH 42 0
DWIDTH 13 0
BBX 12 5 0 5
BITMAP
FF70
2360
22E0
22A0
7630
ENDCHAR
STARTCHAR fraction
ENCODING -1
SWIDTH 42 0
DWIDTH 1 0
BBX 9 10 -3 0
BITMAP
0180
0100
0200
0400
0C00
1800
1000
2000
4000
C000
ENDCHAR
STARTCHAR grave
ENCODING -1
SWIDTH 42 0
DWIDTH 8 0
BBX 3 1 3 9
BITMAP
E0
ENDCHAR
STARTCHAR perthousand
ENCODING -1
SWIDTH 42 0
DWIDTH 14 0
BBX 14 10 0 0
BITMAP
6180
9100
9200
9400
6C00
1B18
14A4
24A4
44A4
C318
ENDCHAR
STARTCHAR ellipsis
ENCODING -1
SWIDTH 42 0
DWIDTH 14 0
BBX 9 1 3 0
BITMAP
8880
ENDCHAR
STARTCHAR quotedblright
ENCODING -1
SWIDTH 42 0
DWIDTH 6 0
BBX 4 3 1 7
BITMAP
90
90
90
ENDCHAR
STARTCHAR Scaron
ENCODING -1
SWIDTH 42 0
DWIDTH 8 0
BBX 6 12 1 0
BITMAP
F8
00
7C
84
84
C0
60
18
04
84
8C
F8
ENDCHAR
STARTCHAR quotedblbase
ENCODING -1
SWIDTH 42 0
DWIDTH 6 0
BBX 4 5 1 -3
BITMAP
90
90
90
90
90
ENDCHAR
STARTCHAR zcaron
ENCODING -1
SWIDTH 42 0
DWIDTH 8 0
BBX 6 9 1 0
BITMAP
F8
00
FC
88
10
20
20
44
FC
ENDCHAR
ENDFONT
